<svg xmlns="http://www.w3.org/2000/svg" width="71" height="40" viewBox="0 0 71 40">
    <g fill="#1DA1F2" fill-rule="evenodd">
        <path d="M4.805 24.621l7.003-2.83c-1.15-2.055-2.966-3.027-4.923-2.236-1.926.778-2.6 2.719-2.08 5.066zm13.002 4.273c-.922 1.856-2.466 3.406-4.85 4.37-4.924 1.99-10.017-.14-12.128-5.367l-.026-.064c-1.97-4.876-.259-10.239 4.511-12.166 5.474-2.212 9.782 1.496 11.21 5.034.567 1.402-.007 2.71-1.23 3.204l-9.205 3.72c1.347 2.013 3.278 2.567 5.358 1.727 1.284-.52 2.187-1.366 2.839-2.482.233-.391.487-.642.977-.84 1.04-.42 2.138.1 2.576 1.183a2.089 2.089 0 0 1-.032 1.681zM20.99 40c3.437 0 5.568-1.98 5.568-6.307v-16.76c0-1.54-1.168-2.786-2.612-2.786-1.443 0-2.612 1.247-2.612 2.787v16.722c0 1.32-.516 1.833-1.272 1.833h-.034c-1.1 0-2.028.88-2.028 2.237C18 39.266 19.237 40 20.922 40h.068zm19.523-5.537c-5.706 0-9.933-4.511-9.933-10.158v-.074C30.58 18.584 34.842 14 40.582 14c5.705 0 9.933 4.51 9.933 10.158v.073c0 5.648-4.262 10.232-10.002 10.232zm.069-4.804c2.99 0 4.777-2.457 4.777-5.354v-.074c0-2.897-1.959-5.427-4.846-5.427-2.99 0-4.778 2.457-4.778 5.354v.073c0 2.897 1.96 5.428 4.847 5.428zM58.11 40c3.128 0 4.674-1.504 6.221-5.5l6.427-16.466c.104-.257.241-.88.241-1.32 0-1.467-1.134-2.567-2.475-2.567-1.34 0-2.096.953-2.509 2.127l-3.85 11.404-3.986-11.441c-.447-1.32-1.203-2.09-2.51-2.09-1.443 0-2.577 1.1-2.577 2.677 0 .366.137.916.275 1.283l6.29 15.549-.172.44c-.481.99-.928 1.173-1.856 1.173-.378 0-.653-.073-1.1-.22a2.324 2.324 0 0 0-.86-.146c-1.065 0-2.062.916-2.062 2.273 0 1.357.894 2.017 1.65 2.31.86.33 1.684.514 2.853.514zM25.013 12c-2.586 0-3.967-1.822-4.01-4.03-.096-2.274 2.155-5.472 5.29-7.97-1.56 4.053 2.338 5.03 2.703 8.067.088 2.068-1.379 3.868-3.983 3.933zm2.376-3.08c.4 0 .69-.302.726-.67.096-.26 0-1.453-.953-2.218.154.993-.586 1.818-.5 2.217 0 .371.326.672.727.672z"/>
    </g>
</svg>
